<svg xmlns="http://www.w3.org/2000/svg" width="60" height="60" viewBox="0 0 60 60">
    <g fill="none" fill-rule="evenodd">
        <rect width="60" height="60" fill="#FFD012" rx="2"/>
        <g fill="#FFF" fill-rule="nonzero" stroke="#FFF" stroke-width=".825">
            <path d="M34.48 24.523h.846c.31 0 .563-.246.563-.548a.557.557 0 0 0-.563-.547h-.846a.557.557 0 0 0-.564.547c0 .302.254.548.564.548z"/>
            <path d="M42.823 19.65a1.127 1.127 0 0 0-1.015-.603H18.133a1.18 1.18 0 0 0-1.014.602c-.198.384-.141.822.112 1.15l9.95 12.157v7.913c0 .411.225.767.591.959.17.082.339.137.536.137.225 0 .45-.055.648-.192l3.129-2.108c.45-.329.704-.822.704-1.342v-5.394l9.921-12.13c.254-.328.31-.766.113-1.15zM31.774 32.408a.576.576 0 0 0-.112.328v5.559a.579.579 0 0 1-.226.465l-3.128 2.108v-8.132c0-.191-.085-.356-.226-.438l-6.37-7.776h10.232c.31 0 .563-.246.563-.548a.557.557 0 0 0-.563-.547H20.839l-2.706-3.286h23.675L31.774 32.41z"/>
        </g>
    </g>
</svg>
