<svg xmlns="http://www.w3.org/2000/svg" width="18" height="16" viewBox="0 0 18 16">
    <g fill="#A9A6AB" fill-rule="nonzero" stroke="#A9A6AB" stroke-width=".25">
        <path d="M4.876 2.558H2.27c-.7 0-1.269.58-1.269 1.293v10.474c0 .713.569 1.293 1.269 1.293h14.236c.7 0 1.269-.58 1.269-1.292V3.85c0-.713-.57-1.293-1.269-1.293H13.874a23.186 23.186 0 0 1 0 .517h2.631a.77.77 0 0 1 .761.776v10.475a.77.77 0 0 1-.761.775H2.269a.77.77 0 0 1-.762-.775V3.85a.77.77 0 0 1 .762-.776h2.607l-.001-.259.001-.248v-.01zM11.654 1.517H7.325c-.047 0-.085-.116-.085-.258 0-.143.038-.259.085-.259h4.329c.047 0 .086.116.086.259 0 .142-.039.258-.086.258z"/>
        <path d="M11.25 3.743v-2.69c0-.03.112-.053.25-.053s.25.024.25.053v2.69c0 .03-.112.054-.25.054s-.25-.024-.25-.054zM7.25 3.743v-2.69c0-.03.112-.053.25-.053s.25.024.25.053v2.69c0 .03-.112.054-.25.054s-.25-.024-.25-.054z"/>
        <path d="M9.44 5.304L7.273 3.76c-.023-.017.022-.124.1-.24.08-.114.163-.194.187-.177l2.167 1.543c.023.017-.022.124-.1.239-.043.061-.13.219-.13.219l-.057-.041z"/>
        <path d="M9.56 5.304l2.167-1.543c.023-.017-.022-.124-.1-.24-.08-.114-.163-.194-.187-.177L9.273 4.887c-.023.017.022.124.1.239.027.038.136.178.075.178l.051.042.061-.042zM11.759 7.275H4.32c-.332 0-.602-.116-.602-.258 0-.143.27-.259.602-.259h7.439c.332 0 .602.116.602.259 0 .142-.27.258-.602.258zM9.433 9.57H4.146c-.236 0-.428-.115-.428-.258 0-.143.192-.259.428-.259h5.287c.236 0 .428.116.428.259 0 .143-.192.258-.428.258zM7.106 11.867H3.972a.256.256 0 0 1-.254-.258c0-.143.114-.259.254-.259h3.134c.14 0 .254.116.254.259a.256.256 0 0 1-.254.258z"/>
    </g>
</svg>
