<svg xmlns="http://www.w3.org/2000/svg" width="18" height="16" viewBox="0 0 18 16">
    <g fill="#A9A6AB" fill-rule="nonzero" stroke="#A9A6AB" stroke-width=".25">
        <path d="M7.376 3H2.27C1.569 3 1 3.57 1 4.271v10.3c0 .7.569 1.271 1.269 1.271h14.236c.7 0 1.269-.57 1.269-1.27v-10.3c0-.701-.57-1.272-1.269-1.272h-.131a22.42 22.42 0 0 1 0 .508h.131c.42 0 .761.343.761.763v10.3c0 .42-.341.763-.761.763H2.269a.763.763 0 0 1-.762-.763v-10.3c0-.42.342-.763.762-.763h5.107a30.865 30.865 0 0 1 0-.508z"/>
        <path d="M9.673 13.37h-5.97a.254.254 0 0 1-.253-.254v-.68c0-.424.247-.816.63-.998l1.344-.827a1.957 1.957 0 0 1-.726-1.443l-.05-1.34c0-1.024.834-1.85 1.862-1.85h.354c1.027 0 1.864.826 1.864 1.84l-.052 1.35a1.953 1.953 0 0 1-.727 1.444l1.358.832c.376.184.619.572.619.992v.68a.253.253 0 0 1-.253.255zm-5.716-.508h5.462v-.426a.598.598 0 0 0-.365-.551l-1.712-1.05a.254.254 0 0 1 .019-.445c.479-.24.789-.715.808-1.241l.052-1.34c0-.725-.608-1.323-1.356-1.323h-.354c-.747 0-1.355.598-1.355 1.332l.05 1.33c.02.525.33 1 .807 1.24a.253.253 0 0 1 .14.217.256.256 0 0 1-.121.228l-1.71 1.051a.613.613 0 0 0-.365.551v.427zM14.627 1.879C13.918 1.312 12.978 1 11.98 1c-.998 0-1.938.312-2.647.879-.722.576-1.12 1.347-1.12 2.17 0 1.447 1.242 2.682 2.975 2.98.035.461-.13.92-.453 1.249a.19.19 0 0 0 .133.322c.923 0 1.715-.665 1.898-1.57.802-.137 1.533-.487 2.071-.993.587-.552.91-1.258.91-1.988 0-.823-.398-1.594-1.12-2.17zm-2.055 4.8a.189.189 0 0 0-.162.204 1.582 1.582 0 0 1-1.115 1.278c.223-.38.316-.833.255-1.28v-.003a.189.189 0 0 0-.162-.2C9.767 6.453 8.59 5.347 8.59 4.048c0-1.472 1.52-2.67 3.39-2.67s3.39 1.198 3.39 2.67c0 1.299-1.176 2.405-2.798 2.63z"/>
    </g>
</svg>
