<svg xmlns="http://www.w3.org/2000/svg" width="18" height="19" viewBox="0 0 18 19">
    <g fill="#4a77e2" fill-rule="nonzero" stroke="#4a77e2" stroke-width=".25">
        <path d="M9.221 1c-4.686 0-8.5 3.813-8.5 8.5 0 4.687 3.814 8.5 8.5 8.5 4.687 0 8.5-3.813 8.5-8.5 0-4.687-3.813-8.5-8.5-8.5zm0 16.469c-4.394 0-7.968-3.575-7.968-7.969S4.827 1.531 9.22 1.531s7.97 3.575 7.97 7.969-3.576 7.969-7.97 7.969z"/>
        <path d="M13.692 8.478A.67.67 0 0 0 13.048 8h-2.442l-.742-2.526A.672.672 0 0 0 8.58 5.47L7.813 8H5.395a.67.67 0 0 0-.644.478.666.666 0 0 0 .264.75l1.979 1.48-.765 2.415a.67.67 0 0 0 .258.757c.236.164.58.148.791-.019l1.823-1.586a.15.15 0 1 0-.17-.248l-1.83 1.593a.38.38 0 0 1-.444.014.37.37 0 0 1-.143-.42l.798-2.518a.15.15 0 0 0-.053-.165L5.188 8.983a.371.371 0 0 1-.15-.418.37.37 0 0 1 .357-.265h2.53a.15.15 0 0 0 .143-.106l.798-2.634a.373.373 0 0 1 .711 0l.773 2.632a.15.15 0 0 0 .144.108h2.554a.37.37 0 0 1 .357.265.374.374 0 0 1-.157.423l-2.064 1.543a.15.15 0 0 0-.053.165l.797 2.518a.37.37 0 0 1-.142.42.376.376 0 0 1-.452-.02l-2.21-1.6a.15.15 0 1 0-.168.249l2.2 1.592a.676.676 0 0 0 .8.025.669.669 0 0 0 .258-.757l-.765-2.416 1.972-1.474a.67.67 0 0 0 .271-.755z"/>
    </g>
</svg>
