<svg xmlns="http://www.w3.org/2000/svg" width="18" height="14" viewBox="0 0 18 14">
    <g fill="#A9A6AB" fill-rule="nonzero" stroke="#A9A6AB" stroke-width=".25">
        <path d="M16.505 13.629H2.269c-.7 0-1.269-.56-1.269-1.247V2.276A1.26 1.26 0 0 1 2.269 1.03h14.236c.7 0 1.269.56 1.269 1.247v10.106a1.26 1.26 0 0 1-1.269 1.247zM2.269 1.528a.756.756 0 0 0-.762.748v10.106c0 .413.342.748.762.748h14.236c.42 0 .761-.335.761-.748V2.276a.756.756 0 0 0-.761-.748H2.269z"/>
        <path d="M12.399 7.916h1.83c.15 0 .271-.12.271-.267a.269.269 0 0 0-.272-.266h-1.66L10.84 3.877a.276.276 0 0 0-.278-.148.27.27 0 0 0-.233.21L9.117 9.67 7.82 4.938a.27.27 0 0 0-.238-.196.275.275 0 0 0-.27.15l-1.25 2.575H4.77c-.15 0-.271.12-.271.267 0 .147.122.266.272.266h1.46c.104 0 .2-.06.245-.152l1.008-2.075 1.404 5.117a.27.27 0 0 0 .262.197h.008a.27.27 0 0 0 .258-.213L10.7 4.815l1.455 2.95c.045.092.14.15.245.15z"/>
    </g>
</svg>
