<svg xmlns="http://www.w3.org/2000/svg" width="18" height="15" viewBox="0 0 18 15">
    <g fill="#B4B1B5" fill-rule="nonzero" stroke="#B4B1B5" stroke-width=".25">
        <path d="M15.78.668H2.993A.256.256 0 0 1 2.74.41c0-.143.113-.259.253-.259H15.78c.14 0 .254.116.254.259a.256.256 0 0 1-.254.258zM16.505 14.872H2.269c-.7 0-1.269-.58-1.269-1.293V3.105c0-.712.569-1.293 1.269-1.293h14.236c.7 0 1.269.58 1.269 1.293V13.58c0 .712-.57 1.292-1.269 1.292zM2.269 2.33a.77.77 0 0 0-.762.775V13.58a.77.77 0 0 0 .762.776h14.236a.77.77 0 0 0 .761-.776V3.105a.77.77 0 0 0-.761-.775H2.269z"/>
        <path d="M9.673 12.326h-5.97a.256.256 0 0 1-.253-.259v-.691c0-.432.247-.83.63-1.015l1.344-.842a2.002 2.002 0 0 1-.726-1.466l-.05-1.363c0-1.042.834-1.882 1.862-1.882h.354A1.87 1.87 0 0 1 8.728 6.68l-.052 1.373a1.998 1.998 0 0 1-.727 1.467l1.358.847c.376.187.619.582.619 1.009v.691a.255.255 0 0 1-.253.259zm-5.716-.517h5.462v-.433a.61.61 0 0 0-.365-.561L7.342 9.747a.26.26 0 0 1 .019-.452 1.48 1.48 0 0 0 .808-1.262l.052-1.364c0-.736-.608-1.344-1.356-1.344h-.354c-.747 0-1.355.608-1.355 1.354l.05 1.354a1.48 1.48 0 0 0 .807 1.26.261.261 0 0 1 .019.451l-1.71 1.07a.624.624 0 0 0-.365.561v.434zM15.106 6.53h-3.134a.256.256 0 0 1-.254-.26c0-.142.114-.258.254-.258h3.134c.14 0 .254.116.254.259a.256.256 0 0 1-.254.258zM15.106 8.825h-3.134a.256.256 0 0 1-.254-.259c0-.143.114-.258.254-.258h3.134c.14 0 .254.115.254.258a.256.256 0 0 1-.254.259zM15.106 11.122h-3.134a.256.256 0 0 1-.254-.259c0-.143.114-.258.254-.258h3.134c.14 0 .254.115.254.258a.256.256 0 0 1-.254.259z"/>
    </g>
</svg>
